<svg xmlns="http://www.w3.org/2000/svg" viewBox="0 0 439.78 275.81"><defs><style>.cls-1{fill:#424446;}.cls-2{fill:#0091fd;}</style></defs><g id="Layer_2" data-name="Layer 2"><g id="Layer_1-2" data-name="Layer 1"><path class="cls-1" d="M142.93,0c6.5,3.12,12.67,6.55,16.6,13.06a27.24,27.24,0,0,1,4.26,14.47q0,22.22,0,44.43c0,9.45.52,10,9.73,10,81.4,0,162.8.16,244.2-.21,10,0,17.23,2.49,22.06,11.21v89.93c-1.43,1.92-2.73,4-4.33,5.73a15.44,15.44,0,0,1-12.25,5.34q-125.4-.15-250.81-.07c-7.69,0-8.59.89-8.59,8.44q0,22.23,0,44.46c0,13.63-7,23.45-20,28.09-.37.14-.62.63-.92.95h-12c-9.26-3.69-16-10.55-22.9-17.45q-44.37-44.6-89-89c-8.11-8-15.92-16.1-19-27.51v-8c3.08-11.39,10.89-19.43,19-27.45q44.42-44,88.5-88.42c7-7.07,13.86-14.34,23.47-18ZM296.24,183.92h125.4c7,0,8.16-1.11,8.16-8q0-37.45,0-74.92c0-8.32-.75-9.06-9.13-9.06-82.43,0-164.87-.15-247.3.17-12.42,0-20.6-7.62-20.19-20.13.49-15.13.17-30.3.09-45.45,0-8-3.68-13.32-10.73-15.63-7.51-2.45-13.61.32-18.93,5.64Q70.83,69.31,18,122.1a34.14,34.14,0,0,0-6,7.9c-4,7.41-2.58,14.55,5,22.52,8.75,9.14,17.8,18,26.74,26.94q40.09,40.1,80.22,80.15c5.67,5.65,12.29,8.11,20,4.8,7.35-3.17,9.61-9.33,9.47-17.07-.27-15-.13-30-.07-45,0-11.79,6.82-18.47,18.54-18.47Z"/><path class="cls-2" d="M296.24,183.91H171.84c-11.72,0-18.49,6.68-18.54,18.47-.06,15-.2,30,.07,45,.14,7.74-2.12,13.9-9.47,17.07-7.66,3.31-14.28.85-20-4.8q-40.11-40.06-80.22-80.15c-8.94-8.94-18-17.8-26.74-26.94-7.63-8-9-15.11-5-22.52a34.14,34.14,0,0,1,6-7.9Q70.81,69.29,123.61,16.49c5.32-5.32,11.42-8.09,18.93-5.64,7.05,2.31,10.69,7.67,10.73,15.63.08,15.15.4,30.32-.09,45.45-.41,12.51,7.77,20.18,20.19,20.13,82.43-.32,164.87-.17,247.3-.17,8.38,0,9.13.74,9.13,9.06q0,37.46,0,74.92c0,6.93-1.14,8-8.16,8Z"/></g></g></svg>